# xmcd
#
# Track frame offsets: 
#        150
#        13007
#        27348
#        42601
#        57323
#        75251
#        93837
#        110689
#        126658
#        138260
#        152681
#        169635
#        185976
#
# Disc length: 2803 seconds
#
# Revision: 0
# Processed by: cddbd v1.5.2PL0 Copyright (c) Steve Scherf et al.
# Submitted via: ExactAudioCopy v1.0b4
#
DISCID=ae0af10d
DTITLE=Eliza Neals - Messin With A Fool
DYEAR=2012
DGENRE=Blues Rock
TTITLE0=Misery
TTITLE1=Man's Man
TTITLE2=Shame
TTITLE3=ESP
TTITLE4=In Charge
TTITLE5=Rather Go To Jail
TTITLE6=Rainin In Detroit
TTITLE7=Livin With Yo Mama
TTITLE8=Been A Long Time
TTITLE9=Money (That's What I Want)
TTITLE10=Can't Stop (No No)
TTITLE11=Pig
TTITLE12=Love Hurts More
EXTD=
EXTT0=
EXTT1=
EXTT2=
EXTT3=
EXTT4=
EXTT5=
EXTT6=
EXTT7=
EXTT8=
EXTT9=
EXTT10=
EXTT11=
EXTT12=
PLAYORDER=
